<svg xmlns="http://www.w3.org/2000/svg" viewBox="0 0 1200 630" width="1200" height="630">
  <defs>
    <linearGradient id="edge-grad" x1="0%" y1="0%" x2="100%" y2="0%">
      <stop offset="0%" stop-color="#7aa2f7" stop-opacity="0.5"/>
      <stop offset="100%" stop-color="#bb9af7" stop-opacity="0.5"/>
    </linearGradient>
    <linearGradient id="accent-grad" x1="0%" y1="0%" x2="100%" y2="0%">
      <stop offset="0%" stop-color="#7aa2f7"/>
      <stop offset="100%" stop-color="#bb9af7"/>
    </linearGradient>
    <radialGradient id="glow-center" cx="50%" cy="50%" r="50%">
      <stop offset="0%" stop-color="#7aa2f7" stop-opacity="0.06"/>
      <stop offset="40%" stop-color="#bb9af7" stop-opacity="0.03"/>
      <stop offset="100%" stop-color="#1a1b26" stop-opacity="0"/>
    </radialGradient>
    <filter id="node-glow">
      <feGaussianBlur stdDeviation="2" result="blur"/>
      <feMerge><feMergeNode in="blur"/><feMergeNode in="SourceGraphic"/></feMerge>
    </filter>
    <filter id="text-glow">
      <feGaussianBlur stdDeviation="3" result="blur"/>
      <feMerge><feMergeNode in="blur"/><feMergeNode in="SourceGraphic"/></feMerge>
    </filter>
  </defs>

  <rect width="1200" height="630" fill="#1a1b26"/>

  <!-- Subtle grid -->
  <g opacity="0.03" stroke="#565f89" stroke-width="0.5">
    <line x1="60" y1="0" x2="60" y2="630"/><line x1="120" y1="0" x2="120" y2="630"/>
    <line x1="180" y1="0" x2="180" y2="630"/><line x1="240" y1="0" x2="240" y2="630"/>
    <line x1="300" y1="0" x2="300" y2="630"/><line x1="360" y1="0" x2="360" y2="630"/>
    <line x1="420" y1="0" x2="420" y2="630"/><line x1="480" y1="0" x2="480" y2="630"/>
    <line x1="540" y1="0" x2="540" y2="630"/><line x1="600" y1="0" x2="600" y2="630"/>
    <line x1="660" y1="0" x2="660" y2="630"/><line x1="720" y1="0" x2="720" y2="630"/>
    <line x1="780" y1="0" x2="780" y2="630"/><line x1="840" y1="0" x2="840" y2="630"/>
    <line x1="900" y1="0" x2="900" y2="630"/><line x1="960" y1="0" x2="960" y2="630"/>
    <line x1="1020" y1="0" x2="1020" y2="630"/><line x1="1080" y1="0" x2="1080" y2="630"/>
    <line x1="1140" y1="0" x2="1140" y2="630"/>
    <line x1="0" y1="60" x2="1200" y2="60"/><line x1="0" y1="120" x2="1200" y2="120"/>
    <line x1="0" y1="180" x2="1200" y2="180"/><line x1="0" y1="240" x2="1200" y2="240"/>
    <line x1="0" y1="300" x2="1200" y2="300"/><line x1="0" y1="360" x2="1200" y2="360"/>
    <line x1="0" y1="420" x2="1200" y2="420"/><line x1="0" y1="480" x2="1200" y2="480"/>
    <line x1="0" y1="540" x2="1200" y2="540"/>
  </g>

  <circle cx="600" cy="315" r="380" fill="url(#glow-center)"/>

  <!-- ===========================================================
       HONEYCOMB TESSELLATION — pointy-top hexagonal cells

       Cell size: s = 65 (circumradius)
       Hex width:  w = s * √3 = 112.6
       Hex height: h = s * 2 = 130
       Row spacing: 3/4 * h = 97.5
       Col spacing: w = 112.6
       Odd rows offset by w/2 = 56.3

       Grid centered at (600, 315).
       Columns: -5 to +5 (11 cols)
       Rows: -3 to +3 (7 rows)

       Each cell is a pointy-top hexagon with vertices at:
         (cx + s*sin(a), cy - s*cos(a)) for a = 0°,60°,120°,180°,240°,300°
       Which gives offsets: (0,-65), (56.3,-32.5), (56.3,32.5), (0,65), (-56.3,32.5), (-56.3,-32.5)
       =========================================================== -->

  <!-- ============ HONEYCOMB CELLS ============ -->
  <!-- Each cell drawn as a <polygon>. Opacity fades with distance from center. -->
  <g fill="none" stroke-linecap="round" stroke-linejoin="round">

    <!-- Row -3 (y = 315 - 3*97.5 = 22.5) — odd row, offset -->
    <polygon points="148.9,-10 205.2,22.5 205.2,87.5 148.9,120 92.6,87.5 92.6,22.5" stroke="#7aa2f7" stroke-width="0.5" opacity="0.08"/>
    <polygon points="261.5,-10 317.8,22.5 317.8,87.5 261.5,120 205.2,87.5 205.2,22.5" stroke="#7aa2f7" stroke-width="0.5" opacity="0.1"/>
    <polygon points="374.1,-10 430.4,22.5 430.4,87.5 374.1,120 317.8,87.5 317.8,22.5" stroke="#7aa2f7" stroke-width="0.6" opacity="0.12"/>
    <polygon points="486.7,-10 543,22.5 543,87.5 486.7,120 430.4,87.5 430.4,22.5" stroke="#7aa2f7" stroke-width="0.6" opacity="0.15"/>
    <polygon points="599.3,-10 655.6,22.5 655.6,87.5 599.3,120 543,87.5 543,22.5" stroke="url(#edge-grad)" stroke-width="0.7" opacity="0.15"/>
    <polygon points="711.9,-10 768.2,22.5 768.2,87.5 711.9,120 655.6,87.5 655.6,22.5" stroke="#bb9af7" stroke-width="0.6" opacity="0.15"/>
    <polygon points="824.5,-10 880.8,22.5 880.8,87.5 824.5,120 768.2,87.5 768.2,22.5" stroke="#bb9af7" stroke-width="0.6" opacity="0.12"/>
    <polygon points="937.1,-10 993.4,22.5 993.4,87.5 937.1,120 880.8,87.5 880.8,22.5" stroke="#bb9af7" stroke-width="0.5" opacity="0.1"/>
    <polygon points="1049.7,-10 1106,22.5 1106,87.5 1049.7,120 993.4,87.5 993.4,22.5" stroke="#bb9af7" stroke-width="0.5" opacity="0.08"/>

    <!-- Row -2 (y = 315 - 2*97.5 = 120) — even row -->
    <polygon points="36.3,87.5 92.6,120 92.6,185 36.3,217.5 -20,185 -20,120" stroke="#7aa2f7" stroke-width="0.5" opacity="0.08"/>
    <polygon points="148.9,87.5 205.2,120 205.2,185 148.9,217.5 92.6,185 92.6,120" stroke="#7aa2f7" stroke-width="0.6" opacity="0.12"/>
    <polygon points="261.5,87.5 317.8,120 317.8,185 261.5,217.5 205.2,185 205.2,120" stroke="#7aa2f7" stroke-width="0.7" opacity="0.18"/>
    <polygon points="374.1,87.5 430.4,120 430.4,185 374.1,217.5 317.8,185 317.8,120" stroke="#7aa2f7" stroke-width="0.8" opacity="0.22"/>
    <polygon points="486.7,87.5 543,120 543,185 486.7,217.5 430.4,185 430.4,120" stroke="#7aa2f7" stroke-width="0.9" opacity="0.28"/>
    <polygon points="599.3,87.5 655.6,120 655.6,185 599.3,217.5 543,185 543,120" stroke="url(#edge-grad)" stroke-width="1" opacity="0.3"/>
    <polygon points="711.9,87.5 768.2,120 768.2,185 711.9,217.5 655.6,185 655.6,120" stroke="#bb9af7" stroke-width="0.9" opacity="0.28"/>
    <polygon points="824.5,87.5 880.8,120 880.8,185 824.5,217.5 768.2,185 768.2,120" stroke="#bb9af7" stroke-width="0.8" opacity="0.22"/>
    <polygon points="937.1,87.5 993.4,120 993.4,185 937.1,217.5 880.8,185 880.8,120" stroke="#bb9af7" stroke-width="0.7" opacity="0.18"/>
    <polygon points="1049.7,87.5 1106,120 1106,185 1049.7,217.5 993.4,185 993.4,120" stroke="#bb9af7" stroke-width="0.6" opacity="0.12"/>
    <polygon points="1162.3,87.5 1218.6,120 1218.6,185 1162.3,217.5 1106,185 1106,120" stroke="#bb9af7" stroke-width="0.5" opacity="0.08"/>

    <!-- Row -1 (y = 315 - 97.5 = 217.5) — odd row, offset -->
    <polygon points="92.6,185 148.9,217.5 148.9,282.5 92.6,315 36.3,282.5 36.3,217.5" stroke="#7aa2f7" stroke-width="0.6" opacity="0.12"/>
    <polygon points="205.2,185 261.5,217.5 261.5,282.5 205.2,315 148.9,282.5 148.9,217.5" stroke="#7aa2f7" stroke-width="0.8" opacity="0.22"/>
    <polygon points="317.8,185 374.1,217.5 374.1,282.5 317.8,315 261.5,282.5 261.5,217.5" stroke="#7aa2f7" stroke-width="1" opacity="0.35"/>
    <polygon points="430.4,185 486.7,217.5 486.7,282.5 430.4,315 374.1,282.5 374.1,217.5" stroke="#7aa2f7" stroke-width="1.1" opacity="0.45"/>
    <polygon points="543,185 599.3,217.5 599.3,282.5 543,315 486.7,282.5 486.7,217.5" stroke="url(#edge-grad)" stroke-width="1.2" opacity="0.5"/>
    <polygon points="655.6,185 711.9,217.5 711.9,282.5 655.6,315 599.3,282.5 599.3,217.5" stroke="url(#edge-grad)" stroke-width="1.2" opacity="0.5"/>
    <polygon points="768.2,185 824.5,217.5 824.5,282.5 768.2,315 711.9,282.5 711.9,217.5" stroke="#bb9af7" stroke-width="1.1" opacity="0.45"/>
    <polygon points="880.8,185 937.1,217.5 937.1,282.5 880.8,315 824.5,282.5 824.5,217.5" stroke="#bb9af7" stroke-width="1" opacity="0.35"/>
    <polygon points="993.4,185 1049.7,217.5 1049.7,282.5 993.4,315 937.1,282.5 937.1,217.5" stroke="#bb9af7" stroke-width="0.8" opacity="0.22"/>
    <polygon points="1106,185 1162.3,217.5 1162.3,282.5 1106,315 1049.7,282.5 1049.7,217.5" stroke="#bb9af7" stroke-width="0.6" opacity="0.12"/>

    <!-- Row 0 (y = 315) — even row, CENTER -->
    <polygon points="36.3,282.5 92.6,315 92.6,380 36.3,412.5 -20,380 -20,282.5" stroke="#7aa2f7" stroke-width="0.6" opacity="0.1"/>
    <polygon points="148.9,282.5 205.2,315 205.2,380 148.9,412.5 92.6,380 92.6,282.5" stroke="#7aa2f7" stroke-width="0.8" opacity="0.2"/>
    <polygon points="261.5,282.5 317.8,315 317.8,380 261.5,412.5 205.2,380 205.2,282.5" stroke="#7aa2f7" stroke-width="1" opacity="0.35"/>
    <polygon points="374.1,282.5 430.4,315 430.4,380 374.1,412.5 317.8,380 317.8,282.5" stroke="#7aa2f7" stroke-width="1.2" opacity="0.5"/>
    <polygon points="486.7,282.5 543,315 543,380 486.7,412.5 430.4,380 430.4,282.5" stroke="url(#edge-grad)" stroke-width="1.3" opacity="0.55"/>
    <polygon points="599.3,282.5 655.6,315 655.6,380 599.3,412.5 543,380 543,282.5" stroke="url(#edge-grad)" stroke-width="1.3" opacity="0.55"/>
    <polygon points="711.9,282.5 768.2,315 768.2,380 711.9,412.5 655.6,380 655.6,282.5" stroke="url(#edge-grad)" stroke-width="1.3" opacity="0.55"/>
    <polygon points="824.5,282.5 880.8,315 880.8,380 824.5,412.5 768.2,380 768.2,282.5" stroke="#bb9af7" stroke-width="1.2" opacity="0.5"/>
    <polygon points="937.1,282.5 993.4,315 993.4,380 937.1,412.5 880.8,380 880.8,282.5" stroke="#bb9af7" stroke-width="1" opacity="0.35"/>
    <polygon points="1049.7,282.5 1106,315 1106,380 1049.7,412.5 993.4,380 993.4,282.5" stroke="#bb9af7" stroke-width="0.8" opacity="0.2"/>
    <polygon points="1162.3,282.5 1218.6,315 1218.6,380 1162.3,412.5 1106,380 1106,282.5" stroke="#bb9af7" stroke-width="0.6" opacity="0.1"/>

    <!-- Row 1 (y = 315 + 97.5 = 412.5) — odd row, offset -->
    <polygon points="92.6,380 148.9,412.5 148.9,477.5 92.6,510 36.3,477.5 36.3,380" stroke="#7aa2f7" stroke-width="0.6" opacity="0.12"/>
    <polygon points="205.2,380 261.5,412.5 261.5,477.5 205.2,510 148.9,477.5 148.9,380" stroke="#7aa2f7" stroke-width="0.8" opacity="0.22"/>
    <polygon points="317.8,380 374.1,412.5 374.1,477.5 317.8,510 261.5,477.5 261.5,380" stroke="#7aa2f7" stroke-width="1" opacity="0.35"/>
    <polygon points="430.4,380 486.7,412.5 486.7,477.5 430.4,510 374.1,477.5 374.1,380" stroke="#73daca" stroke-width="1.1" opacity="0.45"/>
    <polygon points="543,380 599.3,412.5 599.3,477.5 543,510 486.7,477.5 486.7,380" stroke="#73daca" stroke-width="1.2" opacity="0.5"/>
    <polygon points="655.6,380 711.9,412.5 711.9,477.5 655.6,510 599.3,477.5 599.3,380" stroke="#73daca" stroke-width="1.2" opacity="0.5"/>
    <polygon points="768.2,380 824.5,412.5 824.5,477.5 768.2,510 711.9,477.5 711.9,380" stroke="#bb9af7" stroke-width="1.1" opacity="0.45"/>
    <polygon points="880.8,380 937.1,412.5 937.1,477.5 880.8,510 824.5,477.5 824.5,380" stroke="#bb9af7" stroke-width="1" opacity="0.35"/>
    <polygon points="993.4,380 1049.7,412.5 1049.7,477.5 993.4,510 937.1,477.5 937.1,380" stroke="#bb9af7" stroke-width="0.8" opacity="0.22"/>
    <polygon points="1106,380 1162.3,412.5 1162.3,477.5 1106,510 1049.7,477.5 1049.7,380" stroke="#bb9af7" stroke-width="0.6" opacity="0.12"/>

    <!-- Row 2 (y = 315 + 2*97.5 = 510) — even row -->
    <polygon points="36.3,477.5 92.6,510 92.6,575 36.3,607.5 -20,575 -20,477.5" stroke="#73daca" stroke-width="0.5" opacity="0.08"/>
    <polygon points="148.9,477.5 205.2,510 205.2,575 148.9,607.5 92.6,575 92.6,477.5" stroke="#73daca" stroke-width="0.6" opacity="0.12"/>
    <polygon points="261.5,477.5 317.8,510 317.8,575 261.5,607.5 205.2,575 205.2,477.5" stroke="#73daca" stroke-width="0.7" opacity="0.18"/>
    <polygon points="374.1,477.5 430.4,510 430.4,575 374.1,607.5 317.8,575 317.8,477.5" stroke="#73daca" stroke-width="0.8" opacity="0.22"/>
    <polygon points="486.7,477.5 543,510 543,575 486.7,607.5 430.4,575 430.4,477.5" stroke="#73daca" stroke-width="0.9" opacity="0.28"/>
    <polygon points="599.3,477.5 655.6,510 655.6,575 599.3,607.5 543,575 543,477.5" stroke="#73daca" stroke-width="1" opacity="0.3"/>
    <polygon points="711.9,477.5 768.2,510 768.2,575 711.9,607.5 655.6,575 655.6,477.5" stroke="#73daca" stroke-width="0.9" opacity="0.28"/>
    <polygon points="824.5,477.5 880.8,510 880.8,575 824.5,607.5 768.2,575 768.2,477.5" stroke="#bb9af7" stroke-width="0.8" opacity="0.22"/>
    <polygon points="937.1,477.5 993.4,510 993.4,575 937.1,607.5 880.8,575 880.8,477.5" stroke="#bb9af7" stroke-width="0.7" opacity="0.18"/>
    <polygon points="1049.7,477.5 1106,510 1106,575 1049.7,607.5 993.4,575 993.4,477.5" stroke="#bb9af7" stroke-width="0.6" opacity="0.12"/>
    <polygon points="1162.3,477.5 1218.6,510 1218.6,575 1162.3,607.5 1106,575 1106,477.5" stroke="#bb9af7" stroke-width="0.5" opacity="0.08"/>

    <!-- Row 3 (y = 315 + 3*97.5 = 607.5) — odd row, offset -->
    <polygon points="148.9,575 205.2,607.5 205.2,672.5 148.9,705 92.6,672.5 92.6,575" stroke="#73daca" stroke-width="0.5" opacity="0.08"/>
    <polygon points="261.5,575 317.8,607.5 317.8,672.5 261.5,705 205.2,672.5 205.2,575" stroke="#73daca" stroke-width="0.5" opacity="0.1"/>
    <polygon points="374.1,575 430.4,607.5 430.4,672.5 374.1,705 317.8,672.5 317.8,575" stroke="#73daca" stroke-width="0.6" opacity="0.12"/>
    <polygon points="486.7,575 543,607.5 543,672.5 486.7,705 430.4,672.5 430.4,575" stroke="#73daca" stroke-width="0.6" opacity="0.15"/>
    <polygon points="599.3,575 655.6,607.5 655.6,672.5 599.3,705 543,672.5 543,575" stroke="#73daca" stroke-width="0.7" opacity="0.15"/>
    <polygon points="711.9,575 768.2,607.5 768.2,672.5 711.9,705 655.6,672.5 655.6,575" stroke="#73daca" stroke-width="0.6" opacity="0.15"/>
    <polygon points="824.5,575 880.8,607.5 880.8,672.5 824.5,705 768.2,672.5 768.2,575" stroke="#bb9af7" stroke-width="0.6" opacity="0.12"/>
    <polygon points="937.1,575 993.4,607.5 993.4,672.5 937.1,705 880.8,672.5 880.8,575" stroke="#bb9af7" stroke-width="0.5" opacity="0.1"/>
    <polygon points="1049.7,575 1106,607.5 1106,672.5 1049.7,705 993.4,672.5 993.4,575" stroke="#bb9af7" stroke-width="0.5" opacity="0.08"/>
  </g>

  <!-- ============ VERTEX NODES at cell intersections ============ -->
  <!-- Nodes placed at shared vertices of the honeycomb. Brightness fades from center. -->

  <!-- Central region nodes (bright) -->
  <g filter="url(#node-glow)">
    <!-- Center hex top -->
    <circle cx="599.3" cy="282.5" r="4" fill="#1a1b26" stroke="url(#accent-grad)" stroke-width="2"/>
    <circle cx="599.3" cy="282.5" r="1.8" fill="#c0caf5"/>
    <!-- Center hex bottom -->
    <circle cx="599.3" cy="412.5" r="4" fill="#1a1b26" stroke="#73daca" stroke-width="2"/>
    <circle cx="599.3" cy="412.5" r="1.8" fill="#73daca"/>

    <!-- Shared vertices around center cells -->
    <circle cx="543" cy="315" r="4.5" fill="#1a1b26" stroke="#7aa2f7" stroke-width="2"/>
    <circle cx="543" cy="315" r="2" fill="#7aa2f7"/>
    <circle cx="655.6" cy="315" r="4.5" fill="#1a1b26" stroke="#bb9af7" stroke-width="2"/>
    <circle cx="655.6" cy="315" r="2" fill="#bb9af7"/>
    <circle cx="543" cy="380" r="4" fill="#1a1b26" stroke="#73daca" stroke-width="2"/>
    <circle cx="543" cy="380" r="1.8" fill="#73daca"/>
    <circle cx="655.6" cy="380" r="4" fill="#1a1b26" stroke="#bb9af7" stroke-width="2"/>
    <circle cx="655.6" cy="380" r="1.8" fill="#bb9af7"/>

    <circle cx="486.7" cy="282.5" r="4" fill="#1a1b26" stroke="#7aa2f7" stroke-width="2"/>
    <circle cx="486.7" cy="282.5" r="1.8" fill="#7aa2f7"/>
    <circle cx="711.9" cy="282.5" r="4" fill="#1a1b26" stroke="#bb9af7" stroke-width="2"/>
    <circle cx="711.9" cy="282.5" r="1.8" fill="#bb9af7"/>
    <circle cx="486.7" cy="412.5" r="4" fill="#1a1b26" stroke="#73daca" stroke-width="2"/>
    <circle cx="486.7" cy="412.5" r="1.8" fill="#73daca"/>
    <circle cx="711.9" cy="412.5" r="4" fill="#1a1b26" stroke="#bb9af7" stroke-width="2"/>
    <circle cx="711.9" cy="412.5" r="1.8" fill="#bb9af7"/>

    <circle cx="430.4" cy="315" r="3.5" fill="#1a1b26" stroke="#7aa2f7" stroke-width="1.8"/>
    <circle cx="430.4" cy="315" r="1.5" fill="#7aa2f7"/>
    <circle cx="768.2" cy="315" r="3.5" fill="#1a1b26" stroke="#bb9af7" stroke-width="1.8"/>
    <circle cx="768.2" cy="315" r="1.5" fill="#bb9af7"/>
    <circle cx="430.4" cy="380" r="3.5" fill="#1a1b26" stroke="#7aa2f7" stroke-width="1.8"/>
    <circle cx="430.4" cy="380" r="1.5" fill="#73daca"/>
    <circle cx="768.2" cy="380" r="3.5" fill="#1a1b26" stroke="#bb9af7" stroke-width="1.8"/>
    <circle cx="768.2" cy="380" r="1.5" fill="#bb9af7"/>
  </g>

  <!-- Mid-range nodes -->
  <g filter="url(#node-glow)" opacity="0.7">
    <circle cx="374.1" cy="282.5" r="3" fill="#1a1b26" stroke="#7aa2f7" stroke-width="1.5"/>
    <circle cx="374.1" cy="282.5" r="1.2" fill="#7aa2f7"/>
    <circle cx="824.5" cy="282.5" r="3" fill="#1a1b26" stroke="#bb9af7" stroke-width="1.5"/>
    <circle cx="824.5" cy="282.5" r="1.2" fill="#bb9af7"/>
    <circle cx="374.1" cy="412.5" r="3" fill="#1a1b26" stroke="#73daca" stroke-width="1.5"/>
    <circle cx="374.1" cy="412.5" r="1.2" fill="#73daca"/>
    <circle cx="824.5" cy="412.5" r="3" fill="#1a1b26" stroke="#bb9af7" stroke-width="1.5"/>
    <circle cx="824.5" cy="412.5" r="1.2" fill="#bb9af7"/>

    <circle cx="317.8" cy="315" r="3" fill="#1a1b26" stroke="#7aa2f7" stroke-width="1.5"/>
    <circle cx="317.8" cy="315" r="1.2" fill="#7aa2f7"/>
    <circle cx="880.8" cy="315" r="3" fill="#1a1b26" stroke="#bb9af7" stroke-width="1.5"/>
    <circle cx="880.8" cy="315" r="1.2" fill="#bb9af7"/>
    <circle cx="317.8" cy="380" r="3" fill="#1a1b26" stroke="#7aa2f7" stroke-width="1.5"/>
    <circle cx="317.8" cy="380" r="1.2" fill="#7aa2f7"/>
    <circle cx="880.8" cy="380" r="3" fill="#1a1b26" stroke="#bb9af7" stroke-width="1.5"/>
    <circle cx="880.8" cy="380" r="1.2" fill="#bb9af7"/>

    <!-- Top/bottom mid-range -->
    <circle cx="543" cy="185" r="3" fill="#1a1b26" stroke="#7aa2f7" stroke-width="1.5"/>
    <circle cx="543" cy="185" r="1.2" fill="#7aa2f7"/>
    <circle cx="655.6" cy="185" r="3" fill="#1a1b26" stroke="#bb9af7" stroke-width="1.5"/>
    <circle cx="655.6" cy="185" r="1.2" fill="#bb9af7"/>
    <circle cx="543" cy="510" r="3" fill="#1a1b26" stroke="#73daca" stroke-width="1.5"/>
    <circle cx="543" cy="510" r="1.2" fill="#73daca"/>
    <circle cx="655.6" cy="510" r="3" fill="#1a1b26" stroke="#73daca" stroke-width="1.5"/>
    <circle cx="655.6" cy="510" r="1.2" fill="#73daca"/>

    <circle cx="486.7" cy="217.5" r="3" fill="#1a1b26" stroke="#7aa2f7" stroke-width="1.5"/>
    <circle cx="486.7" cy="217.5" r="1.2" fill="#7aa2f7"/>
    <circle cx="711.9" cy="217.5" r="3" fill="#1a1b26" stroke="#bb9af7" stroke-width="1.5"/>
    <circle cx="711.9" cy="217.5" r="1.2" fill="#bb9af7"/>
    <circle cx="486.7" cy="477.5" r="3" fill="#1a1b26" stroke="#73daca" stroke-width="1.5"/>
    <circle cx="486.7" cy="477.5" r="1.2" fill="#73daca"/>
    <circle cx="711.9" cy="477.5" r="3" fill="#1a1b26" stroke="#73daca" stroke-width="1.5"/>
    <circle cx="711.9" cy="477.5" r="1.2" fill="#73daca"/>
  </g>

  <!-- Outer edge nodes -->
  <g opacity="0.4">
    <circle cx="261.5" cy="282.5" r="2.5" fill="#1a1b26" stroke="#7aa2f7" stroke-width="1"/>
    <circle cx="261.5" cy="282.5" r="1" fill="#7aa2f7"/>
    <circle cx="937.1" cy="282.5" r="2.5" fill="#1a1b26" stroke="#bb9af7" stroke-width="1"/>
    <circle cx="937.1" cy="282.5" r="1" fill="#bb9af7"/>
    <circle cx="261.5" cy="412.5" r="2.5" fill="#1a1b26" stroke="#7aa2f7" stroke-width="1"/>
    <circle cx="261.5" cy="412.5" r="1" fill="#7aa2f7"/>
    <circle cx="937.1" cy="412.5" r="2.5" fill="#1a1b26" stroke="#bb9af7" stroke-width="1"/>
    <circle cx="937.1" cy="412.5" r="1" fill="#bb9af7"/>
    <circle cx="205.2" cy="315" r="2.5" fill="#1a1b26" stroke="#7aa2f7" stroke-width="1"/>
    <circle cx="205.2" cy="315" r="1" fill="#7aa2f7"/>
    <circle cx="993.4" cy="315" r="2.5" fill="#1a1b26" stroke="#bb9af7" stroke-width="1"/>
    <circle cx="993.4" cy="315" r="1" fill="#bb9af7"/>

    <circle cx="430.4" cy="120" r="2.5" fill="#1a1b26" stroke="#7aa2f7" stroke-width="1"/>
    <circle cx="430.4" cy="120" r="1" fill="#7aa2f7"/>
    <circle cx="768.2" cy="120" r="2.5" fill="#1a1b26" stroke="#bb9af7" stroke-width="1"/>
    <circle cx="768.2" cy="120" r="1" fill="#bb9af7"/>
    <circle cx="430.4" cy="575" r="2.5" fill="#1a1b26" stroke="#73daca" stroke-width="1"/>
    <circle cx="430.4" cy="575" r="1" fill="#73daca"/>
    <circle cx="768.2" cy="575" r="2.5" fill="#1a1b26" stroke="#73daca" stroke-width="1"/>
    <circle cx="768.2" cy="575" r="1" fill="#73daca"/>

    <circle cx="599.3" cy="87.5" r="2.5" fill="#1a1b26" stroke="url(#accent-grad)" stroke-width="1"/>
    <circle cx="599.3" cy="87.5" r="1" fill="#7aa2f7"/>
    <circle cx="599.3" cy="607.5" r="2.5" fill="#1a1b26" stroke="#73daca" stroke-width="1"/>
    <circle cx="599.3" cy="607.5" r="1" fill="#73daca"/>
  </g>

  <!-- ============ DATA FLOW PARTICLES ============ -->
  <g>
    <!-- Along center row right -->
    <circle r="2" fill="#bb9af7" opacity="0.8">
      <animateMotion dur="4s" repeatCount="indefinite"
        path="M543,315 L599.3,282.5 L655.6,315 L711.9,282.5 L768.2,315"/>
    </circle>
    <!-- Along center row left -->
    <circle r="2" fill="#7aa2f7" opacity="0.8">
      <animateMotion dur="4s" repeatCount="indefinite"
        path="M655.6,315 L599.3,282.5 L543,315 L486.7,282.5 L430.4,315"/>
    </circle>
    <!-- Down the center column -->
    <circle r="1.5" fill="#73daca" opacity="0.8">
      <animateMotion dur="3.5s" repeatCount="indefinite"
        path="M599.3,282.5 L655.6,315 L599.3,412.5 L543,380 L599.3,282.5"/>
    </circle>
    <!-- Zig-zag top-right -->
    <circle r="1.5" fill="#bb9af7" opacity="0.6">
      <animateMotion dur="5s" repeatCount="indefinite"
        path="M711.9,282.5 L768.2,315 L824.5,282.5 L880.8,315 L937.1,282.5"/>
    </circle>
    <!-- Zig-zag bottom-left -->
    <circle r="1.5" fill="#73daca" opacity="0.6">
      <animateMotion dur="5s" repeatCount="indefinite"
        path="M486.7,412.5 L430.4,380 L374.1,412.5 L317.8,380 L261.5,412.5"/>
    </circle>
    <!-- Down right side -->
    <circle r="1.5" fill="#bb9af7" opacity="0.7">
      <animateMotion dur="4.5s" repeatCount="indefinite"
        path="M768.2,120 L711.9,217.5 L768.2,315 L711.9,412.5 L768.2,510"/>
    </circle>
    <!-- Down left side -->
    <circle r="1.5" fill="#7aa2f7" opacity="0.7">
      <animateMotion dur="4.5s" repeatCount="indefinite"
        path="M430.4,120 L486.7,217.5 L430.4,315 L486.7,412.5 L430.4,510"/>
    </circle>
    <!-- Outer orbit top -->
    <circle r="1.5" fill="#7aa2f7" opacity="0.5">
      <animateMotion dur="6s" repeatCount="indefinite"
        path="M317.8,185 L430.4,120 L543,185 L655.6,120 L768.2,185 L880.8,120"/>
    </circle>
  </g>

  <!-- ============ TYPOGRAPHY ============ -->
  <rect x="395" y="283" width="410" height="74" rx="3" fill="#1a1b26" opacity="0.82"/>

  <text x="600" y="335" text-anchor="middle" font-family="'Inter', 'SF Pro Display', 'Helvetica Neue', sans-serif" font-weight="700" font-size="76" fill="#c0caf5" letter-spacing="-2" filter="url(#text-glow)">BitWise</text>

  <text x="600" y="364" text-anchor="middle" font-family="'SF Mono', 'Fira Code', 'Cascadia Code', monospace" font-size="18" fill="#7f849c" letter-spacing="6">INTELLIGENT BACKENDS</text>

  <line x1="490" y1="375" x2="710" y2="375" stroke="url(#accent-grad)" stroke-width="1" opacity="0.35"/>

  <!-- Vignette -->
  <rect width="1200" height="630" fill="none" stroke="#1a1b26" stroke-width="50" opacity="0.5"/>
</svg>
